<svg xmlns="http://www.w3.org/2000/svg" viewBox="0 0 334 316">
  <defs>
    <radialGradient id="nucleus" cx="46%" cy="42%" r="58%">
      <stop offset="0" stop-color="#8fffff"/><stop offset=".18" stop-color="#2cc8d2"/><stop offset=".48" stop-color="#08728b"/><stop offset="1" stop-color="#061729"/>
    </radialGradient>
    <filter id="glow" x="-150%" y="-150%" width="400%" height="400%"><feGaussianBlur stdDeviation="7" result="b"/><feMerge><feMergeNode in="b"/><feMergeNode in="SourceGraphic"/></feMerge></filter>
  </defs>
  <rect width="334" height="316" fill="#0e273e"/>
  <circle cx="165" cy="159" r="129" fill="none" stroke="#1b7189" stroke-width="2.2"/>
  <ellipse cx="165" cy="159" rx="133" ry="65" fill="none" stroke="#36c9d0" stroke-width="2.4" transform="rotate(-24 165 159)"/>
  <ellipse cx="165" cy="159" rx="133" ry="65" fill="none" stroke="#c83b68" stroke-width="2.4" transform="rotate(24 165 159)"/>
  <g fill="none" stroke-linecap="round" stroke-width="5"><path d="M73 145A103 103 0 0 1 132 61" stroke="#36bde8"/><path d="M177 56A103 103 0 0 1 263 147" stroke="#438ee8"/><path d="M76 181A103 103 0 0 0 136 257" stroke="#6573c9"/><path d="M155 265A103 103 0 0 0 255 204" stroke="#b35498"/></g>
  <g stroke="#eaf8ff" stroke-opacity=".5" stroke-width="1.4" stroke-linejoin="round"><polygon points="165,93 165,162 106,127" fill="#35b9df"/><polygon points="165,93 224,127 165,162" fill="#3988e7"/><polygon points="224,127 224,196 165,162" fill="#5570c6"/><polygon points="224,196 165,230 165,162" fill="#a94e96"/><polygon points="165,230 106,196 165,162" fill="#5a7fce"/><polygon points="106,196 106,127 165,162" fill="#31c4d4"/></g>
  <circle cx="165" cy="162" r="28" fill="#061527" stroke="#06101e" stroke-width="5"/><circle cx="165" cy="162" r="13" fill="url(#nucleus)" filter="url(#glow)"/>
  <g fill="#67efec" filter="url(#glow)"><circle cx="149" cy="28" r="8"/><circle cx="282" cy="90" r="8"/><circle cx="287" cy="229" r="8"/><circle cx="165" cy="296" r="8"/><circle cx="47" cy="229" r="8"/><circle cx="53" cy="96" r="8"/></g>
</svg>
